<?xml version="1.0" standalone="no"?>
<!DOCTYPE svg PUBLIC "-//W3C//DTD SVG 20010904//EN"
 "http://www.w3.org/TR/2001/REC-SVG-20010904/DTD/svg10.dtd">
<svg version="1.0" xmlns="http://www.w3.org/2000/svg"
 width="1030.000000pt" height="1030.000000pt" viewBox="0 0 1030.000000 1030.000000"
 preserveAspectRatio="xMidYMid meet">
<metadata>
Created by potrace 1.11, written by Peter Selinger 2001-2013
</metadata>
<g transform="translate(0.000000,1030.000000) scale(0.100000,-0.100000)"
fill="#000000" stroke="none">
<path d="M2098 9133 c-26 -9 -71 -36 -100 -61 -58 -49 -181 -132 -196 -132 -6
0 -12 -4 -14 -8 -1 -5 -79 -48 -173 -96 -93 -49 -189 -101 -213 -117 -24 -16
-45 -29 -48 -29 -3 0 -14 -10 -24 -22 -15 -19 -28 -23 -77 -23 -42 -1 -80 -10
-136 -33 -43 -17 -88 -34 -100 -36 -12 -3 -33 -8 -47 -11 -80 -19 -233 -41
-365 -50 -33 -3 -78 -7 -100 -10 -22 -2 -65 -7 -95 -10 -30 -3 -84 -13 -120
-21 -36 -9 -73 -17 -83 -19 -27 -6 -99 -48 -124 -72 -34 -32 -62 -92 -73 -154
-9 -50 -7 -218 4 -314 2 -22 7 -66 11 -98 3 -32 8 -68 11 -80 2 -12 7 -42 10
-67 3 -25 7 -56 10 -70 3 -14 7 -43 9 -65 7 -61 16 -118 20 -135 2 -8 7 -43
10 -77 3 -34 10 -88 15 -119 5 -31 9 -59 8 -63 0 -3 1 -8 2 -11 1 -3 3 -20 5
-39 2 -19 6 -53 10 -75 14 -96 16 -113 20 -156 2 -25 4 -45 5 -45 1 0 3 -25 5
-55 2 -30 6 -68 9 -85 3 -16 8 -66 12 -110 3 -44 7 -98 9 -120 8 -100 17 -320
20 -535 5 -317 12 -423 30 -487 28 -102 32 -119 24 -129 -5 -6 -6 -13 -4 -16
3 -3 -2 -27 -10 -53 -25 -71 -21 -127 11 -188 19 -37 27 -67 27 -102 0 -49
-21 -134 -42 -173 -5 -10 -12 -30 -15 -43 -2 -13 -8 -38 -11 -54 -9 -44 13
-64 140 -120 134 -59 183 -64 203 -22 20 41 21 57 26 312 8 389 19 495 60 575
28 55 25 79 -18 150 -55 89 -68 129 -71 215 -5 124 26 171 116 180 61 5 106
13 164 31 28 8 50 14 50 13 0 -7 399 124 495 164 14 5 30 11 35 13 6 1 82 32
169 68 139 58 189 76 256 93 8 2 31 6 50 9 26 4 48 19 85 58 27 29 80 71 116
94 122 78 189 177 196 292 5 71 -13 114 -59 144 -39 25 -78 31 -151 22 -54 -6
-79 -18 -122 -55 -29 -25 -128 -89 -335 -216 -120 -74 -210 -142 -210 -159 0
-11 -47 -38 -70 -41 -3 -1 -18 -4 -35 -8 -16 -4 -47 -10 -68 -12 -136 -17
-269 -57 -400 -119 -101 -48 -165 -54 -207 -20 -41 35 -69 115 -85 244 -2 14
-6 43 -9 65 -12 88 -24 295 -31 499 -2 65 -7 137 -10 160 -4 22 -9 55 -11 71
-6 32 -10 59 -18 115 -3 19 -8 46 -11 60 -3 14 -8 36 -10 50 -6 34 -25 126
-36 178 -17 75 -20 205 -7 223 19 23 47 36 98 43 73 11 82 13 135 25 54 13
221 59 245 68 8 3 20 7 25 9 6 1 73 20 150 43 77 22 158 42 180 45 112 15 130
18 133 27 2 5 8 9 14 9 5 0 22 8 36 18 37 24 222 95 282 107 23 5 139 50 195
76 44 20 147 91 183 126 7 7 33 27 57 44 25 18 45 36 45 41 0 4 5 8 10 8 6 0
31 21 56 48 102 107 119 240 46 359 -38 60 -111 77 -204 46z"/>
<path d="M8352 8500 c-41 -25 -65 -68 -68 -124 -38 -598 -37 -3205 1 -3515 4
-38 13 -59 28 -72 79 -66 257 28 280 148 2 10 7 25 10 33 3 8 20 62 37 120 18
58 37 111 42 118 6 6 8 12 5 12 -9 0 95 246 122 290 6 8 22 38 37 65 36 67
106 157 153 197 51 43 97 58 140 46 38 -11 52 -25 113 -113 58 -84 140 -195
223 -300 103 -130 131 -175 151 -234 9 -30 32 -72 50 -95 72 -88 118 -162 185
-294 79 -154 132 -230 181 -260 51 -32 81 -34 120 -7 28 19 39 37 58 96 14 47
34 84 52 103 27 26 29 34 24 70 -15 89 -135 299 -233 405 -94 104 -125 161
-138 264 -4 34 -44 132 -63 156 -9 12 -37 47 -61 79 -24 31 -67 76 -95 100
-28 23 -67 56 -86 72 -19 16 -38 30 -42 30 -4 0 -26 13 -50 29 -64 43 -184
102 -208 103 -3 0 -9 3 -15 8 -17 14 -177 51 -235 54 -93 5 -175 -18 -239 -65
-31 -24 -57 -46 -59 -51 -2 -4 -10 -8 -18 -8 -8 0 -14 -4 -14 -9 0 -5 -12 -11
-26 -14 -21 -4 -29 1 -44 25 -19 32 -38 116 -46 201 -2 28 -6 70 -9 92 -2 22
-7 83 -10 135 -3 52 -8 133 -10 180 -3 47 -7 141 -10 210 -11 262 -15 369 -20
505 -15 436 -22 619 -30 715 -19 248 -30 316 -61 415 -18 53 -55 102 -79 102
-9 0 -28 -8 -43 -17z"/>
<path d="M6328 6984 c-3 -2 -34 -7 -69 -9 -35 -2 -77 -7 -93 -10 -37 -8 -148
-46 -161 -55 -53 -41 -144 -76 -215 -83 -43 -5 -88 -39 -91 -70 -5 -50 -4 -77
4 -112 5 -22 10 -48 12 -58 9 -42 44 -84 100 -117 32 -20 67 -37 79 -38 11 0
30 -6 41 -11 21 -10 163 -45 225 -55 19 -3 51 -10 70 -14 19 -5 37 -9 40 -9
19 -2 105 -27 155 -45 78 -28 123 -52 219 -116 43 -28 84 -52 90 -53 52 -3
104 -36 153 -97 48 -58 76 -102 66 -102 -5 0 -3 -4 2 -8 13 -9 41 -74 55 -127
42 -165 -68 -398 -245 -517 -85 -58 -254 -103 -365 -99 -367 14 -434 7 -469
-50 -22 -36 -20 -62 8 -120 48 -98 61 -113 109 -124 9 -3 62 -20 117 -39 55
-19 118 -37 140 -40 22 -2 42 -5 45 -6 18 -6 209 8 222 16 4 3 16 7 25 9 40 8
122 39 184 70 252 125 464 362 548 610 29 85 33 110 33 200 1 91 -8 148 -28
187 -8 15 -14 30 -13 34 2 9 -109 191 -189 309 -70 103 -116 155 -135 155 -10
0 -126 45 -177 69 -19 9 -37 16 -40 17 -30 5 -421 199 -453 224 -15 12 -25 26
-22 31 3 4 44 27 90 50 47 23 85 48 85 55 0 7 4 14 10 16 9 3 15 44 11 75 -2
19 -52 41 -107 49 -27 3 -52 8 -55 10 -3 2 -8 1 -11 -2z"/>
<path d="M5006 6783 c-2 -3 -19 -7 -38 -9 -81 -13 -245 -96 -341 -173 -52 -42
-163 -160 -215 -229 -64 -85 -132 -193 -132 -211 0 -6 -4 -11 -10 -11 -5 0
-10 -4 -10 -9 0 -5 -17 -47 -39 -93 -44 -96 -53 -116 -58 -141 -1 -10 -10 -31
-18 -48 -9 -16 -13 -29 -11 -29 3 0 1 -12 -5 -27 -6 -16 -13 -37 -15 -48 -4
-22 -11 -53 -19 -87 -37 -156 -39 -413 -5 -558 58 -242 239 -452 410 -476 86
-12 241 -5 362 16 32 6 68 12 80 14 33 5 105 25 163 44 28 9 53 15 58 14 4 -1
7 2 7 8 0 6 3 9 8 8 11 -4 132 56 132 64 0 5 6 8 13 8 24 0 127 104 127 128 0
25 -41 47 -72 39 -10 -3 -20 -1 -23 3 -3 5 -13 9 -23 9 -9 -1 -78 2 -152 5
-74 3 -209 8 -300 11 -331 11 -392 24 -432 92 -12 20 -23 43 -24 50 -3 18 49
68 86 85 16 7 30 16 30 20 0 5 3 7 8 6 13 -4 305 152 357 191 82 63 136 126
172 201 16 33 87 129 143 190 32 36 70 79 85 95 54 62 125 232 143 345 12 75
5 235 -12 290 -21 64 -82 160 -102 160 -8 0 -14 4 -14 9 0 5 -17 15 -37 21
-21 6 -45 14 -53 17 -17 7 -218 12 -224 6z m80 -406 c19 -11 26 -74 13 -119
-6 -24 -11 -44 -10 -46 3 -7 -77 -154 -111 -205 -49 -72 -157 -183 -220 -225
-26 -18 -49 -32 -52 -32 -3 0 -37 -19 -75 -42 -46 -27 -74 -51 -82 -70 -6 -15
-15 -28 -19 -28 -5 0 -15 -3 -23 -6 -25 -9 -30 31 -8 78 29 65 41 120 46 207
3 44 10 92 16 107 12 34 68 87 134 130 48 30 115 97 121 120 12 48 160 141
223 140 20 -1 41 -5 47 -9z"/>
<path d="M3960 6573 c-25 -8 -49 -15 -55 -16 -46 -11 -216 -114 -305 -185
-122 -98 -238 -218 -313 -322 -26 -36 -50 -69 -54 -75 -24 -31 -66 -123 -97
-210 -63 -175 -86 -201 -132 -148 -13 15 -24 32 -24 36 0 12 -79 117 -88 117
-21 0 -52 43 -52 73 -1 46 -31 108 -76 152 -120 117 -183 61 -170 -150 3 -55
8 -113 10 -130 10 -64 16 -101 21 -125 3 -14 10 -45 15 -70 7 -36 37 -152 75
-290 2 -8 15 -53 30 -100 14 -47 28 -96 31 -110 2 -14 7 -32 11 -40 3 -8 7
-22 9 -30 1 -8 9 -44 18 -80 8 -36 17 -78 20 -95 3 -16 7 -41 10 -55 2 -14 10
-59 16 -100 16 -104 47 -186 86 -226 6 -7 34 -24 63 -38 172 -88 249 75 169
359 -7 22 -12 42 -13 45 -1 4 -8 26 -43 120 -3 8 -4 20 -3 25 2 6 5 21 7 34 3
13 20 42 39 64 37 43 61 104 71 182 18 141 151 411 301 612 59 80 108 174 117
223 4 24 38 84 55 97 9 7 24 13 33 13 95 1 352 274 374 397 7 39 -89 67 -156
46z"/>
<path d="M9298 3035 c-3 -3 -72 -13 -138 -20 -167 -17 -326 -25 -650 -30 -146
-2 -270 -4 -275 -5 -6 -1 -12 -1 -15 0 -15 6 -69 5 -97 -1 -18 -4 -33 -4 -33
0 0 7 -232 5 -525 -4 -333 -10 -504 -22 -610 -42 -16 -3 -41 -6 -55 -8 -23 -3
-57 -8 -130 -20 -25 -5 -115 -16 -160 -20 -14 -2 -25 -4 -25 -5 0 -1 -19 -3
-41 -5 -23 -2 -64 -6 -90 -10 -100 -13 -120 -16 -154 -20 -19 -2 -46 -7 -60
-10 -14 -3 -38 -8 -55 -11 -16 -3 -59 -12 -95 -20 -62 -14 -111 -24 -155 -30
-11 -1 -20 -3 -20 -4 0 -1 -16 -3 -35 -4 -19 -2 -64 -6 -100 -10 -36 -4 -103
-9 -150 -11 -47 -2 -125 -7 -175 -9 -169 -10 -652 -26 -901 -30 -89 -2 -166
-6 -172 -10 -6 -3 -13 -2 -17 4 -4 6 -10 8 -15 5 -5 -3 -125 -8 -267 -10 -343
-6 -746 -18 -1063 -31 -98 -4 -112 -4 -132 -3 -7 0 -58 -2 -113 -5 -55 -3
-147 -8 -205 -11 -260 -13 -328 -16 -375 -20 -27 -3 -88 -7 -135 -9 -47 -3
-134 -8 -195 -12 -127 -8 -556 -13 -568 -6 -5 2 -39 6 -78 8 -38 2 -83 7 -101
10 -18 4 -40 7 -48 9 -42 6 -112 30 -168 58 -97 48 -119 19 -80 -108 53 -172
111 -239 248 -284 99 -33 121 -39 170 -46 25 -4 54 -9 65 -11 66 -13 204 -18
455 -18 296 0 451 6 675 29 182 18 667 29 2220 50 541 7 952 19 1075 30 25 2
81 6 125 9 44 3 96 7 115 10 19 3 61 8 94 11 32 4 68 8 80 10 75 11 124 18
146 20 14 1 41 5 60 9 76 14 87 16 130 21 25 3 54 9 65 12 11 3 38 7 60 9 22
1 40 3 40 4 0 3 39 9 68 12 16 1 31 6 33 10 3 5 9 6 14 3 4 -3 32 0 61 5 30 6
74 13 99 15 61 7 110 14 140 19 31 6 121 17 175 22 22 2 60 5 85 8 86 11 165
18 225 21 33 2 98 6 145 10 203 14 313 16 1000 20 834 4 905 7 1004 45 81 30
144 178 106 250 -34 67 -116 119 -232 146 -25 6 -264 14 -270 9z"/>
<path d="M8108 1695 c-2 -1 -41 -5 -88 -8 -47 -4 -96 -9 -110 -11 -152 -28
-294 -41 -565 -50 -106 -4 -516 -7 -575 -5 -20 1 -939 -11 -1254 -16 -136 -2
-251 -6 -253 -9 -3 -3 -16 -1 -29 4 -13 5 -24 6 -24 2 0 -4 -75 -8 -168 -8
-173 -2 -552 -11 -797 -19 -77 -3 -221 -7 -320 -10 -209 -6 -396 -12 -580 -20
-71 -3 -195 -8 -275 -10 -152 -5 -269 -13 -282 -21 -15 -9 -7 -19 37 -49 24
-16 46 -38 49 -50 7 -25 -18 -45 -47 -38 -52 12 -115 15 -121 5 -5 -8 18 -32
81 -82 7 -6 16 -10 20 -10 14 0 176 -69 186 -79 7 -7 0 -14 -16 -22 -34 -15
-34 -27 -2 -35 23 -6 345 0 615 11 316 13 623 21 1095 30 563 11 840 14 1815
19 1444 8 1567 12 1745 59 6 2 25 11 42 20 50 27 66 68 67 172 0 76 -3 96 -23
131 -29 52 -77 79 -158 91 -35 6 -64 9 -65 8z"/>
</g>
</svg>
