<svg xmlns="http://www.w3.org/2000/svg" viewBox="0 0 515.24 399.86"><defs><style>.cls-1{fill:#ffffff;}</style></defs><g id="Layer_2" data-name="Layer 2"><g id="Layer_1-2" data-name="Layer 1"><path class="cls-1" d="M309.57,215.65c-4.81-1.77-9-3.23-9.23-3.24s-1.55-2.06-2.88-4.55c-4.53-8.45.73-11.14,18.66-9.51C334.37,200,348,190.54,351.05,174c1.51-8-6.87-22.4-13.26-22.81-1.33-.09-5-2.15-8-4.56s-10.85-5.4-17.27-6.61c-20.89-3.93-25.47-6.16-27-13.15-1.66-7.53-.07-10.89,5.13-10.89,2.08,0,5.7-1.33,8.09-3,7.94-5.44,26.35-6.24,26.73-1.16.21,2.76-1.62,5.07-5,6.36-2.95,1.12-5.35,2.59-5.35,3.26,0,1.41,31.86,16.41,34.84,16.41,1.74,0,6.56,6.65,15,20.67C380.74,185.1,340.28,226.89,309.57,215.65Zm-82.13-40.11c0-1,3.33-3.36,7.4-5.3,15.78-7.53,29.24-37.73,13.95-31.33-3.91,1.64-7.39,4.36-7.73,6s-3.55,4.79-7.12,6.89c-4.92,2.9-6.5,5.45-6.5,10.42,0,3.63-1,8.5-2.26,10.84-1.56,2.92-1.56,4.23,0,4.23A2.07,2.07,0,0,0,227.44,175.54Zm-8,48.29C180.39,199,218.38,107.7,263,119c13.66,3.46,13.29,31.6-.6,45a58.89,58.89,0,0,0-9.6,12.9C250.21,182,245.17,186,235,191c-15.07,7.43-15.19,7.56-12,12.6,1.61,2.54,7.42,3.39,25.42,3.74,26.78.51,28.53,1.27,19.53,8.53C257.49,224.31,227.81,229.17,219.4,223.83Zm275.08-3.19c-2.91-6.3-7-13.2-9.14-15.34s-3.83-5-3.83-6.29-2.22-5.16-4.93-8.49C471.45,184.2,464,174.16,461.35,170c-7.75-12.23-22,6.36-31.75,41.31-2,7.13-12.74,10.79-14.92,5.08-2.4-6.31-2.24-177.56.17-180.86,7.52-10.29,11.52,0,12.71,32.85,3.61,99.9,3.2,97.38,14.31,88,14.05-11.83,55,11.57,55,31.45,0,1.94,3.13,6.75,7,10.69,6.69,6.91,14,22.62,10.56,22.62-.93,0-2.31,2.46-3.07,5.47C508.74,236.73,500.59,233.83,494.48,220.64Zm-475,10.08c-9.9-4.18-9.66-3.7-6.38-12.79,2.25-6.23,2.31-8.83.23-12.13a10.14,10.14,0,0,1-.66-9.42c1.16-3,1.16-6.45,0-8.28s-2-13.54-2-26.31c0-23.52-1.65-40.74-7.9-84.12-6-41.39-4.67-43.37,30.49-46.13,8.64-.67,18.55-2.62,22-4.35s7.09-2.62,8.06-2a2.33,2.33,0,0,0,3.09-1c.72-1.16,7.63-5.23,15.36-9s15.74-8.78,17.8-11c4.21-4.65,12.91-5.51,15.39-1.51,4.41,7.14,2.89,14.61-4.15,20.36L99.61,32c-2.25,1.83-9.15,4.8-15.33,6.62s-12.19,4.18-13.34,5.28a10.24,10.24,0,0,1-6.11,2c-2.21,0-10.31,2-18,4.51S30.33,55.2,27.22,55.54c-8.39.89-8.64,1.85-5.09,19.28,1.8,8.8,3.35,18.46,3.46,21.47,1.63,46.81,3.49,51,19.25,42.72,3.46-1.79,10.94-3.89,16.65-4.65s9.93-2.08,9.42-2.91,5.41-5.25,13.17-9.79,14.68-9.15,15.36-10.24,4-2,7.52-2c11.86,0,10.47,15.87-2,23.27-3.69,2.18-6.71,4.73-6.71,5.68S96.77,140.1,95,140.1s-6.93,1.6-11.5,3.59C64.07,152.1,40,159.81,33.17,159.81c-6.21,0-7.14,11.36-1.57,19.31,2.7,3.87,2.91,5.66.9,8.08-1.57,1.89-2.61,11.28-2.65,24C29.79,234.92,29.73,235,19.44,230.72ZM147.78,238c-2.29-1.67-4.26-6.76-4.89-12.59a147.19,147.19,0,0,0-5.14-22.93c-10.76-34.53-10.93-54.76-.39-45.73,2.57,2.2,4.65,5.75,4.65,7.89s.82,3.89,1.83,3.89,3.15,2.49,4.78,5.52c3.45,6.46,5,5.3,8.8-6.57,6.27-19.57,40.65-46.27,48.08-37.32,2.83,3.39-12.91,20.85-18.79,20.85-1.42,0-3.27,2.71-4.1,6a28.55,28.55,0,0,1-5.45,10.4c-6.14,6.79-15.43,25.68-15.43,31.35a13.76,13.76,0,0,1-3.41,8.51c-2,2-2.79,4.92-1.93,7C164.73,234.27,160.1,247.05,147.78,238ZM62.07,345.21C48,342,45.14,340,41.85,330.8c-3.09-8.61-2.05-10.87,3.44-7.45,7.28,4.54,26.84,5.51,61.15,3,19-1.36,58.63-2.94,88.14-3.51,73.75-1.42,98.19-2.61,108.42-5.27a156.26,156.26,0,0,1,19.71-3.36c6-.6,17.85-2.24,26.29-3.67,8.7-1.46,33.33-2.42,56.94-2.21,22.9.19,47.86-.75,55.48-2.1,19.24-3.41,33.82,4.05,28.32,14.5-3.83,7.29-5.5,7.54-49.84,7.32-51.52-.26-72,1.24-115,8.43-29.75,5-40.29,5.58-111.7,6.41-43.36.5-83.28,1.41-88.71,2-21.79,2.48-52.07,2.61-62.42.24Zm85.41,53.65c3.84-1.62,3.4-2.18-3.83-4.79-8.46-3.06-11.61-7.87-3.83-5.83,5.41,1.4,5.78-1.8.55-4.85-3-1.72-1.12-2.3,8.21-2.59,6.63-.19,18.95-.63,27.38-1,46.6-1.84,144.28-3.76,170.72-3.39,16.79.24,37.25-.75,45.45-2.22,18.76-3.35,25.86-.94,25.86,8.78,0,13.22-.59,13.34-69.69,13.47-71.72.14-138,1.26-177.81,3C155,400.17,145,399.9,147.48,398.86Z"/></g></g></svg>